<svg width="88" height="26" viewBox="0 0 88 26" fill="none" xmlns="http://www.w3.org/2000/svg">
<path d="M0.734375 0H13.8906V6.15625L12.0156 6.51562V15.4062L13.8906 15.7656V22H0.734375V15.7656L2.60938 15.4062V6.51562L0.734375 6.15625V0ZM24.4375 10.4531V15.4062L26.3281 15.75V22H16.9219V15.7656L18.7969 15.4062V6.51562L16.9219 6.15625V0H28.2031L35.7188 11.8594V6.54688L33.8438 6.15625V0H43.2344V6.15625L41.3594 6.51562V15.4062L43.2344 15.7656V22H31.9531L24.4375 10.4531ZM44.958 18.448V17.472H47.406H49.838V18.448V19.424H47.406H44.958V18.448ZM53.931 14.768H54.939C55.3017 14.8 55.6057 14.864 55.851 14.96L55.963 14.992L56.251 14.88L56.539 14.752H56.715C56.8323 14.752 56.907 14.7627 56.939 14.784C57.003 14.8267 57.0403 14.9333 57.051 15.104C57.051 15.2 57.051 15.4293 57.051 15.792C57.051 16.4 57.0137 16.7307 56.939 16.784C56.8963 16.8053 56.7417 16.816 56.475 16.816C56.2083 16.816 56.0537 16.8053 56.011 16.784C55.9363 16.7307 55.899 16.6613 55.899 16.576C55.899 16.2453 55.7443 16.0053 55.435 15.856C55.179 15.728 54.8323 15.664 54.395 15.664C53.979 15.664 53.6537 15.712 53.419 15.808C53.1417 15.9253 53.003 16.1227 53.003 16.4C53.003 16.4427 53.0137 16.4907 53.035 16.544C53.067 16.6827 53.1843 16.8 53.387 16.896C53.5363 16.9813 53.915 17.0827 54.523 17.2C55.0777 17.296 55.467 17.376 55.691 17.44C56.331 17.664 56.8163 18.016 57.147 18.496C57.2963 18.7413 57.403 18.9813 57.467 19.216C57.4883 19.3227 57.499 19.4827 57.499 19.696C57.499 19.92 57.4883 20.0853 57.467 20.192C57.3283 20.9387 56.923 21.4667 56.251 21.776C55.963 21.9147 55.6057 22.0107 55.179 22.064C55.1043 22.0747 54.891 22.08 54.539 22.08C54.155 22.08 53.8137 22.048 53.515 21.984C53.323 21.9307 53.1363 21.8613 52.955 21.776L52.779 21.696L52.395 21.888L51.995 22.096H51.835C51.707 22.096 51.627 22.0853 51.595 22.064C51.531 22.032 51.4937 21.936 51.483 21.776C51.483 21.6693 51.483 21.3653 51.483 20.864C51.483 20.128 51.515 19.7333 51.579 19.68C51.6323 19.648 51.787 19.632 52.043 19.632C52.3203 19.632 52.4803 19.6427 52.523 19.664C52.555 19.6853 52.6083 19.7813 52.683 19.952C52.8857 20.5387 53.2803 20.9013 53.867 21.04C54.347 21.168 54.8377 21.1627 55.339 21.024C55.7123 20.896 55.9257 20.6773 55.979 20.368C56.043 19.984 55.8457 19.696 55.387 19.504C55.2163 19.4293 54.8857 19.3493 54.395 19.264C53.9043 19.1787 53.6323 19.1253 53.579 19.104C52.5763 18.8693 51.9203 18.3893 51.611 17.664C51.579 17.5787 51.5523 17.4933 51.531 17.408C51.5097 17.312 51.499 17.1627 51.499 16.96C51.499 16.7573 51.5043 16.624 51.515 16.56C51.6537 15.888 52.0217 15.4027 52.619 15.104C52.9817 14.912 53.419 14.8 53.931 14.768ZM60.2206 10.96C61.2873 10.9173 61.81 10.896 61.7886 10.896H61.8846V13.392V15.904L61.9806 15.808C62.3433 15.4453 62.7646 15.184 63.2446 15.024C63.5326 14.928 63.778 14.864 63.9806 14.832C64.2473 14.7893 64.6153 14.784 65.0846 14.816C65.1273 14.8267 65.1646 14.832 65.1966 14.832C66.018 14.928 66.5726 15.2747 66.8606 15.872C66.9246 16 66.9833 16.1973 67.0366 16.464C67.058 16.5813 67.074 17.344 67.0846 18.752V20.848H67.6446H68.1886V21.424V22H68.0446C68.0553 22 67.6873 21.9893 66.9406 21.968C66.3006 21.9573 65.6606 21.9573 65.0206 21.968L63.9006 22H63.7566V21.424V20.848H64.3166H64.8606V18.848C64.8606 17.4613 64.8553 16.736 64.8446 16.672C64.7913 16.128 64.562 15.8293 64.1566 15.776C64.082 15.776 63.9966 15.776 63.9006 15.776C63.3886 15.808 62.9513 16.0053 62.5886 16.368C62.3326 16.624 62.162 16.9067 62.0766 17.216C62.0126 17.3973 61.9806 17.856 61.9806 18.592C61.9806 18.72 61.9806 18.944 61.9806 19.264V20.848H62.5406H63.0846V21.424V22H62.9406L61.8206 21.968C61.1806 21.9573 60.5406 21.9573 59.9006 21.968C59.154 21.9893 58.786 22 58.7966 22H58.6526V21.424V20.848H59.2126H59.7566V16.688C59.7566 13.9147 59.746 12.5013 59.7246 12.448C59.6926 12.3413 59.6233 12.272 59.5166 12.24C59.3673 12.1973 59.1486 12.176 58.8606 12.176H58.6526V11.6V11.024H58.7006C58.6473 11.024 59.154 11.0027 60.2206 10.96ZM72.5994 14.768L73.5754 14.784C75.154 14.9653 76.2047 15.6907 76.7274 16.96C76.7594 17.0347 76.7914 17.1147 76.8234 17.2C76.9514 17.584 77.0207 17.9787 77.0314 18.384C77.0527 19.2373 76.8394 19.9733 76.3914 20.592C76.1567 20.944 75.8367 21.2373 75.4314 21.472C75.1647 21.6533 74.7967 21.808 74.3274 21.936C73.9434 22.032 73.4847 22.08 72.9514 22.08C72.418 22.08 71.9594 22.032 71.5754 21.936C71.106 21.808 70.738 21.6533 70.4714 21.472C70.066 21.2373 69.746 20.944 69.5114 20.592C69.234 20.1973 69.042 19.7387 68.9354 19.216C68.7434 18.1813 68.9247 17.2373 69.4794 16.384C69.5434 16.2667 69.618 16.16 69.7034 16.064C70.322 15.328 71.2074 14.9013 72.3594 14.784C72.4234 14.7733 72.5034 14.768 72.5994 14.768ZM73.4314 15.776C73.1754 15.7333 72.914 15.7227 72.6474 15.744C72.2314 15.808 71.9274 15.936 71.7354 16.128C71.522 16.32 71.394 16.64 71.3514 17.088C71.33 17.312 71.3194 17.6427 71.3194 18.08C71.3087 19.2107 71.362 19.9413 71.4794 20.272C71.6287 20.656 71.9754 20.9067 72.5194 21.024C72.7647 21.0667 73.0527 21.0667 73.3834 21.024C73.714 20.96 73.97 20.8373 74.1514 20.656C74.3647 20.4533 74.4927 20.1067 74.5354 19.616C74.546 19.4987 74.5567 19.3653 74.5674 19.216L74.5514 17.216C74.5514 17.184 74.5514 17.1627 74.5514 17.152C74.498 16.6613 74.37 16.32 74.1674 16.128C73.9967 15.9573 73.7514 15.84 73.4314 15.776ZM79.5145 14.864C80.5812 14.8213 81.1038 14.8 81.0825 14.8H81.1785V15.088V15.392L81.3705 15.296C81.8718 15.072 82.4692 14.9173 83.1625 14.832C83.2692 14.8213 83.4932 14.816 83.8345 14.816C84.2505 14.816 84.5972 14.8587 84.8745 14.944C85.8452 15.2213 86.5225 15.856 86.9065 16.848C87.0345 17.2427 87.1145 17.6427 87.1465 18.048C87.1678 18.4213 87.1625 18.7573 87.1305 19.056C86.9812 20.0267 86.5705 20.7787 85.8985 21.312C85.4292 21.6853 84.8372 21.9307 84.1225 22.048C83.7492 22.1013 83.3278 22.1067 82.8585 22.064C82.2612 21.9573 81.7598 21.7813 81.3545 21.536L81.2745 21.504V22.72V23.952H81.8345H82.3785V24.528V25.104H82.2345L81.1145 25.072C80.4745 25.0613 79.8345 25.0613 79.1945 25.072C78.4478 25.0933 78.0798 25.104 78.0905 25.104H77.9465V24.528V23.952H78.5065H79.0505V20.192C79.0505 17.6853 79.0398 16.4053 79.0185 16.352C78.9865 16.2453 78.9172 16.176 78.8105 16.144C78.6612 16.1013 78.4425 16.08 78.1545 16.08H77.9465V15.504V14.928H77.9945C77.9412 14.928 78.4478 14.9067 79.5145 14.864ZM83.4985 15.888C83.4558 15.8773 83.3492 15.8613 83.1785 15.84C82.5065 15.8187 81.9038 16.016 81.3705 16.432L81.2745 16.512V18.4V20.288L81.4505 20.464C81.8025 20.816 82.2078 21.024 82.6665 21.088C83.0185 21.1413 83.3385 21.0987 83.6265 20.96C84.2132 20.6613 84.5652 20.016 84.6825 19.024C84.7252 18.704 84.7305 18.32 84.6985 17.872C84.6878 17.8293 84.6825 17.7973 84.6825 17.776C84.6185 17.3493 84.5118 16.9867 84.3625 16.688C84.2772 16.5067 84.1545 16.336 83.9945 16.176C83.8238 16.0373 83.6585 15.9413 83.4985 15.888Z" fill="white"/>
</svg>
